
<svg xmlns="http://www.w3.org/2000/svg" version="1.1" viewBox="0.00 0.00 1088.00 1089.00">
<g stroke-width="2.00" fill="none" stroke-linecap="butt">
<path stroke="#808080" vector-effect="non-scaling-stroke" d="
  M 658.23 179.00
  L 451.74 179.00
  A 0.92 0.90 -6.3 0 1 450.85 178.30
  C 439.01 128.77 395.87 92.36 344.80 89.88
  C 271.71 86.33 214.28 149.70 225.00 221.99
  Q 230.85 261.48 259.56 288.11
  Q 260.21 288.71 259.77 289.47
  L 154.75 471.36
  Q 154.48 471.82 153.96 471.77
  Q 143.73 470.81 140.75 470.76
  C 66.80 469.45 32.01 561.28 86.44 609.57
  Q 114.60 634.56 153.68 628.26
  A 0.92 0.90 69.8 0 1 154.61 628.70
  L 259.82 810.91
  A 0.66 0.64 -37.2 0 1 259.70 811.71
  C 227.05 842.91 215.31 889.86 229.51 932.00
  C 244.49 976.47 285.29 1008.22 332.74 1010.29
  C 389.31 1012.75 437.40 976.72 450.86 921.91
  A 1.19 1.19 0.0 0 1 452.02 921.00
  L 657.99 921.00
  Q 658.43 921.00 658.57 921.41
  C 670.97 956.41 703.91 977.82 740.78 974.60
  C 803.44 969.11 834.76 896.17 796.38 846.49
  Q 796.11 846.14 796.33 845.75
  L 903.21 660.67
  Q 903.47 660.23 903.96 660.37
  C 972.13 680.10 1040.74 636.29 1050.71 566.44
  C 1058.13 514.55 1029.68 463.77 981.12 443.84
  Q 944.36 428.77 904.00 439.66
  Q 903.32 439.84 902.97 439.24
  L 796.47 254.76
  Q 796.19 254.27 796.52 253.82
  C 826.65 213.30 814.41 155.40 768.21 133.18
  C 745.90 122.44 718.19 122.69 696.22 134.74
  C 679.48 143.91 664.24 159.79 658.86 178.53
  Q 658.72 179.00 658.23 179.00"
/>
<path stroke="#e0dfdf" vector-effect="non-scaling-stroke" d="
  M 401.71 204.87
  A 62.92 62.92 0.0 0 0 338.79 141.95
  A 62.92 62.92 0.0 0 0 275.87 204.87
  A 62.92 62.92 0.0 0 0 338.79 267.79
  A 62.92 62.92 0.0 0 0 401.71 204.87"
/>
<path stroke="#b2b1b0" vector-effect="non-scaling-stroke" d="
  M 781.45 204.84
  A 47.80 47.80 0.0 0 0 733.65 157.04
  A 47.80 47.80 0.0 0 0 685.85 204.84
  A 47.80 47.80 0.0 0 0 733.65 252.64
  A 47.80 47.80 0.0 0 0 781.45 204.84"
/>
<path stroke="#808080" vector-effect="non-scaling-stroke" d="
  M 658.90 868.39
  C 672.30 831.63 711.88 808.29 750.89 817.95
  A 1.39 1.37 21.5 0 0 752.41 817.30
  L 857.58 635.12
  Q 857.86 634.63 857.48 634.21
  Q 846.29 621.73 843.67 618.09
  C 810.26 571.66 815.21 507.10 857.18 467.19
  Q 858.18 466.24 857.12 464.40
  Q 804.70 373.51 752.20 282.65
  Q 751.95 282.21 751.45 282.31
  C 718.33 289.15 685.64 276.80 667.05 248.54
  C 663.77 243.55 661.14 237.32 658.59 231.51
  Q 658.36 231.00 657.80 231.00
  L 452.01 231.00
  A 1.10 1.09 7.2 0 0 450.95 231.82
  C 433.72 296.73 370.95 333.44 305.89 315.25
  Q 305.32 315.10 305.03 315.61
  L 200.20 497.19
  A 1.40 1.39 -50.0 0 0 200.33 498.77
  C 225.17 528.78 225.06 571.42 200.28 601.40
  Q 199.64 602.18 200.14 603.05
  L 304.96 784.56
  A 0.93 0.93 0.0 0 0 306.02 784.99
  C 368.98 767.19 435.47 803.47 450.63 868.31
  Q 450.80 869.00 451.51 869.00
  L 658.03 869.00
  A 0.94 0.92 -79.5 0 0 658.90 868.39"
/>
<path stroke="#e0dfdf" vector-effect="non-scaling-stroke" d="
  M 999.74 550.12
  A 62.90 62.90 0.0 0 0 936.84 487.22
  A 62.90 62.90 0.0 0 0 873.94 550.12
  A 62.90 62.90 0.0 0 0 936.84 613.02
  A 62.90 62.90 0.0 0 0 999.74 550.12"
/>
<path stroke="#b2b1b0" vector-effect="non-scaling-stroke" d="
  M 187.23 550.15
  A 47.82 47.82 0.0 0 0 139.41 502.33
  A 47.82 47.82 0.0 0 0 91.59 550.15
  A 47.82 47.82 0.0 0 0 139.41 597.97
  A 47.82 47.82 0.0 0 0 187.23 550.15"
/>
<path stroke="#e0dfdf" vector-effect="non-scaling-stroke" d="
  M 401.70 895.45
  A 62.92 62.92 0.0 0 0 338.78 832.53
  A 62.92 62.92 0.0 0 0 275.86 895.45
  A 62.92 62.92 0.0 0 0 338.78 958.37
  A 62.92 62.92 0.0 0 0 401.70 895.45"
/>
<path stroke="#b2b1b0" vector-effect="non-scaling-stroke" d="
  M 781.48 895.41
  A 47.83 47.83 0.0 0 0 733.65 847.58
  A 47.83 47.83 0.0 0 0 685.82 895.41
  A 47.83 47.83 0.0 0 0 733.65 943.24
  A 47.83 47.83 0.0 0 0 781.48 895.41"
/>
<path stroke="#808080" vector-effect="non-scaling-stroke" d="
  M 683.40 521.95
  Q 575.29 522.15 466.66 521.87
  Q 458.23 521.85 454.00 523.23
  C 423.95 533.07 431.32 578.95 463.81 578.97
  Q 593.70 579.05 723.58 578.97
  Q 737.81 578.96 742.63 577.43
  C 754.87 573.56 763.38 560.85 762.18 547.85
  C 761.61 541.62 758.93 536.41 755.67 530.82
  Q 733.80 493.28 661.81 367.99
  Q 652.67 352.08 634.25 352.03
  Q 582.53 351.91 449.51 352.03
  C 434.04 352.05 422.93 353.55 415.30 366.80
  Q 368.47 448.15 321.45 529.39
  Q 315.54 539.58 314.58 544.35
  C 312.70 553.65 315.70 561.08 320.35 569.11
  Q 366.13 648.15 411.74 727.29
  C 419.17 740.18 425.52 748.02 440.50 748.01
  Q 537.54 747.97 634.61 748.02
  Q 642.36 748.03 646.76 746.71
  C 677.83 737.41 671.46 691.06 638.75 691.04
  Q 548.15 690.99 457.87 691.00
  A 1.46 1.43 74.8 0 1 456.62 690.27
  Q 417.50 622.47 378.31 554.44
  Q 377.14 552.42 376.16 550.28
  Q 375.95 549.83 376.20 549.40
  L 456.85 409.63
  A 1.28 1.28 0.0 0 1 457.95 409.00
  L 617.73 409.00
  A 2.22 2.22 0.0 0 1 619.65 410.11
  L 683.84 521.20
  Q 684.27 521.95 683.40 521.95"
/>
</g>
<path fill="#000000" d="
  M 0.00 0.00
  L 1088.00 0.00
  L 1088.00 1089.00
  L 0.00 1089.00
  L 0.00 0.00
  Z
  M 658.23 179.00
  L 451.74 179.00
  A 0.92 0.90 -6.3 0 1 450.85 178.30
  C 439.01 128.77 395.87 92.36 344.80 89.88
  C 271.71 86.33 214.28 149.70 225.00 221.99
  Q 230.85 261.48 259.56 288.11
  Q 260.21 288.71 259.77 289.47
  L 154.75 471.36
  Q 154.48 471.82 153.96 471.77
  Q 143.73 470.81 140.75 470.76
  C 66.80 469.45 32.01 561.28 86.44 609.57
  Q 114.60 634.56 153.68 628.26
  A 0.92 0.90 69.8 0 1 154.61 628.70
  L 259.82 810.91
  A 0.66 0.64 -37.2 0 1 259.70 811.71
  C 227.05 842.91 215.31 889.86 229.51 932.00
  C 244.49 976.47 285.29 1008.22 332.74 1010.29
  C 389.31 1012.75 437.40 976.72 450.86 921.91
  A 1.19 1.19 0.0 0 1 452.02 921.00
  L 657.99 921.00
  Q 658.43 921.00 658.57 921.41
  C 670.97 956.41 703.91 977.82 740.78 974.60
  C 803.44 969.11 834.76 896.17 796.38 846.49
  Q 796.11 846.14 796.33 845.75
  L 903.21 660.67
  Q 903.47 660.23 903.96 660.37
  C 972.13 680.10 1040.74 636.29 1050.71 566.44
  C 1058.13 514.55 1029.68 463.77 981.12 443.84
  Q 944.36 428.77 904.00 439.66
  Q 903.32 439.84 902.97 439.24
  L 796.47 254.76
  Q 796.19 254.27 796.52 253.82
  C 826.65 213.30 814.41 155.40 768.21 133.18
  C 745.90 122.44 718.19 122.69 696.22 134.74
  C 679.48 143.91 664.24 159.79 658.86 178.53
  Q 658.72 179.00 658.23 179.00
  Z"
/>
<path fill="#ffffff" d="
  M 658.86 178.53
  C 664.24 159.79 679.48 143.91 696.22 134.74
  C 718.19 122.69 745.90 122.44 768.21 133.18
  C 814.41 155.40 826.65 213.30 796.52 253.82
  Q 796.19 254.27 796.47 254.76
  L 902.97 439.24
  Q 903.32 439.84 904.00 439.66
  Q 944.36 428.77 981.12 443.84
  C 1029.68 463.77 1058.13 514.55 1050.71 566.44
  C 1040.74 636.29 972.13 680.10 903.96 660.37
  Q 903.47 660.23 903.21 660.67
  L 796.33 845.75
  Q 796.11 846.14 796.38 846.49
  C 834.76 896.17 803.44 969.11 740.78 974.60
  C 703.91 977.82 670.97 956.41 658.57 921.41
  Q 658.43 921.00 657.99 921.00
  L 452.02 921.00
  A 1.19 1.19 0.0 0 0 450.86 921.91
  C 437.40 976.72 389.31 1012.75 332.74 1010.29
  C 285.29 1008.22 244.49 976.47 229.51 932.00
  C 215.31 889.86 227.05 842.91 259.70 811.71
  A 0.66 0.64 -37.2 0 0 259.82 810.91
  L 154.61 628.70
  A 0.92 0.90 69.8 0 0 153.68 628.26
  Q 114.60 634.56 86.44 609.57
  C 32.01 561.28 66.80 469.45 140.75 470.76
  Q 143.73 470.81 153.96 471.77
  Q 154.48 471.82 154.75 471.36
  L 259.77 289.47
  Q 260.21 288.71 259.56 288.11
  Q 230.85 261.48 225.00 221.99
  C 214.28 149.70 271.71 86.33 344.80 89.88
  C 395.87 92.36 439.01 128.77 450.85 178.30
  A 0.92 0.90 -6.3 0 0 451.74 179.00
  L 658.23 179.00
  Q 658.72 179.00 658.86 178.53
  Z
  M 401.71 204.87
  A 62.92 62.92 0.0 0 0 338.79 141.95
  A 62.92 62.92 0.0 0 0 275.87 204.87
  A 62.92 62.92 0.0 0 0 338.79 267.79
  A 62.92 62.92 0.0 0 0 401.71 204.87
  Z
  M 781.45 204.84
  A 47.80 47.80 0.0 0 0 733.65 157.04
  A 47.80 47.80 0.0 0 0 685.85 204.84
  A 47.80 47.80 0.0 0 0 733.65 252.64
  A 47.80 47.80 0.0 0 0 781.45 204.84
  Z
  M 658.90 868.39
  C 672.30 831.63 711.88 808.29 750.89 817.95
  A 1.39 1.37 21.5 0 0 752.41 817.30
  L 857.58 635.12
  Q 857.86 634.63 857.48 634.21
  Q 846.29 621.73 843.67 618.09
  C 810.26 571.66 815.21 507.10 857.18 467.19
  Q 858.18 466.24 857.12 464.40
  Q 804.70 373.51 752.20 282.65
  Q 751.95 282.21 751.45 282.31
  C 718.33 289.15 685.64 276.80 667.05 248.54
  C 663.77 243.55 661.14 237.32 658.59 231.51
  Q 658.36 231.00 657.80 231.00
  L 452.01 231.00
  A 1.10 1.09 7.2 0 0 450.95 231.82
  C 433.72 296.73 370.95 333.44 305.89 315.25
  Q 305.32 315.10 305.03 315.61
  L 200.20 497.19
  A 1.40 1.39 -50.0 0 0 200.33 498.77
  C 225.17 528.78 225.06 571.42 200.28 601.40
  Q 199.64 602.18 200.14 603.05
  L 304.96 784.56
  A 0.93 0.93 0.0 0 0 306.02 784.99
  C 368.98 767.19 435.47 803.47 450.63 868.31
  Q 450.80 869.00 451.51 869.00
  L 658.03 869.00
  A 0.94 0.92 -79.5 0 0 658.90 868.39
  Z
  M 999.74 550.12
  A 62.90 62.90 0.0 0 0 936.84 487.22
  A 62.90 62.90 0.0 0 0 873.94 550.12
  A 62.90 62.90 0.0 0 0 936.84 613.02
  A 62.90 62.90 0.0 0 0 999.74 550.12
  Z
  M 187.23 550.15
  A 47.82 47.82 0.0 0 0 139.41 502.33
  A 47.82 47.82 0.0 0 0 91.59 550.15
  A 47.82 47.82 0.0 0 0 139.41 597.97
  A 47.82 47.82 0.0 0 0 187.23 550.15
  Z
  M 401.70 895.45
  A 62.92 62.92 0.0 0 0 338.78 832.53
  A 62.92 62.92 0.0 0 0 275.86 895.45
  A 62.92 62.92 0.0 0 0 338.78 958.37
  A 62.92 62.92 0.0 0 0 401.70 895.45
  Z
  M 781.48 895.41
  A 47.83 47.83 0.0 0 0 733.65 847.58
  A 47.83 47.83 0.0 0 0 685.82 895.41
  A 47.83 47.83 0.0 0 0 733.65 943.24
  A 47.83 47.83 0.0 0 0 781.48 895.41
  Z"
/>
<circle fill="#c0bebf" cx="338.79" cy="204.87" r="62.92"/>
<circle fill="#646260" cx="733.65" cy="204.84" r="47.80"/>
<path fill="#000000" d="
  M 750.89 817.95
  C 711.88 808.29 672.30 831.63 658.90 868.39
  A 0.94 0.92 -79.5 0 1 658.03 869.00
  L 451.51 869.00
  Q 450.80 869.00 450.63 868.31
  C 435.47 803.47 368.98 767.19 306.02 784.99
  A 0.93 0.93 0.0 0 1 304.96 784.56
  L 200.14 603.05
  Q 199.64 602.18 200.28 601.40
  C 225.06 571.42 225.17 528.78 200.33 498.77
  A 1.40 1.39 -50.0 0 1 200.20 497.19
  L 305.03 315.61
  Q 305.32 315.10 305.89 315.25
  C 370.95 333.44 433.72 296.73 450.95 231.82
  A 1.10 1.09 7.2 0 1 452.01 231.00
  L 657.80 231.00
  Q 658.36 231.00 658.59 231.51
  C 661.14 237.32 663.77 243.55 667.05 248.54
  C 685.64 276.80 718.33 289.15 751.45 282.31
  Q 751.95 282.21 752.20 282.65
  Q 804.70 373.51 857.12 464.40
  Q 858.18 466.24 857.18 467.19
  C 815.21 507.10 810.26 571.66 843.67 618.09
  Q 846.29 621.73 857.48 634.21
  Q 857.86 634.63 857.58 635.12
  L 752.41 817.30
  A 1.39 1.37 21.5 0 1 750.89 817.95
  Z
  M 683.40 521.95
  Q 575.29 522.15 466.66 521.87
  Q 458.23 521.85 454.00 523.23
  C 423.95 533.07 431.32 578.95 463.81 578.97
  Q 593.70 579.05 723.58 578.97
  Q 737.81 578.96 742.63 577.43
  C 754.87 573.56 763.38 560.85 762.18 547.85
  C 761.61 541.62 758.93 536.41 755.67 530.82
  Q 733.80 493.28 661.81 367.99
  Q 652.67 352.08 634.25 352.03
  Q 582.53 351.91 449.51 352.03
  C 434.04 352.05 422.93 353.55 415.30 366.80
  Q 368.47 448.15 321.45 529.39
  Q 315.54 539.58 314.58 544.35
  C 312.70 553.65 315.70 561.08 320.35 569.11
  Q 366.13 648.15 411.74 727.29
  C 419.17 740.18 425.52 748.02 440.50 748.01
  Q 537.54 747.97 634.61 748.02
  Q 642.36 748.03 646.76 746.71
  C 677.83 737.41 671.46 691.06 638.75 691.04
  Q 548.15 690.99 457.87 691.00
  A 1.46 1.43 74.8 0 1 456.62 690.27
  Q 417.50 622.47 378.31 554.44
  Q 377.14 552.42 376.16 550.28
  Q 375.95 549.83 376.20 549.40
  L 456.85 409.63
  A 1.28 1.28 0.0 0 1 457.95 409.00
  L 617.73 409.00
  A 2.22 2.22 0.0 0 1 619.65 410.11
  L 683.84 521.20
  Q 684.27 521.95 683.40 521.95
  Z"
/>
<path fill="#ffffff" d="
  M 683.40 521.95
  Q 684.27 521.95 683.84 521.20
  L 619.65 410.11
  A 2.22 2.22 0.0 0 0 617.73 409.00
  L 457.95 409.00
  A 1.28 1.28 0.0 0 0 456.85 409.63
  L 376.20 549.40
  Q 375.95 549.83 376.16 550.28
  Q 377.14 552.42 378.31 554.44
  Q 417.50 622.47 456.62 690.27
  A 1.46 1.43 74.8 0 0 457.87 691.00
  Q 548.15 690.99 638.75 691.04
  C 671.46 691.06 677.83 737.41 646.76 746.71
  Q 642.36 748.03 634.61 748.02
  Q 537.54 747.97 440.50 748.01
  C 425.52 748.02 419.17 740.18 411.74 727.29
  Q 366.13 648.15 320.35 569.11
  C 315.70 561.08 312.70 553.65 314.58 544.35
  Q 315.54 539.58 321.45 529.39
  Q 368.47 448.15 415.30 366.80
  C 422.93 353.55 434.04 352.05 449.51 352.03
  Q 582.53 351.91 634.25 352.03
  Q 652.67 352.08 661.81 367.99
  Q 733.80 493.28 755.67 530.82
  C 758.93 536.41 761.61 541.62 762.18 547.85
  C 763.38 560.85 754.87 573.56 742.63 577.43
  Q 737.81 578.96 723.58 578.97
  Q 593.70 579.05 463.81 578.97
  C 431.32 578.95 423.95 533.07 454.00 523.23
  Q 458.23 521.85 466.66 521.87
  Q 575.29 522.15 683.40 521.95
  Z"
/>
<circle fill="#c0bebf" cx="936.84" cy="550.12" r="62.90"/>
<circle fill="#646260" cx="139.41" cy="550.15" r="47.82"/>
<circle fill="#c0bebf" cx="338.78" cy="895.45" r="62.92"/>
<circle fill="#646260" cx="733.65" cy="895.41" r="47.83"/>
</svg>
